<?xml version="1.0" encoding="UTF-8"?>
<svg id="katman_1" data-name="katman 1" xmlns="http://www.w3.org/2000/svg" viewBox="0 0 165.53 227.96">
  <polygon points="164.91 61.13 165.53 176.31 .54 176.32 .42 140.36 107.58 30.6 44.94 30.16 44.85 45.64 63.26 46.46 .15 110.51 0 0 165.35 .04 165.41 29.55 90.17 106.64 53.1 145.2 119.21 145.51 119.38 129.33 97.99 129 164.91 61.13"/>
  <g>
    <g>
      <path d="M133.63,213.08c-3.44,5.24-8.19,9.41-13.8,12.41-3.73,1.99-9.17,3.41-12.73,1.64-1.73-.86-2.4-2.33-2.28-4.2l-3.16,4.1-3.4.19,14.05-21.4,7.04-9.92c5.16-6.32,13.46-12.48,22.34-11.3l-1.58,1.37c-6.76-1.33-14.25,5.84-17.63,11.01l-9.41,14.38c3.72-3.35,7.25-6.46,11.62-8.88,3.47-1.99,8.6-3.87,11.12-1.51,2.7,2.53.19,8.48-2.19,12.12ZM121.71,222.69c4.58-4.09,7.92-9.27,9.83-14.92.45-1.33.54-2.96-.17-4.09-1.48-2.33-6.03-.41-8.9,1.51-5.35,3.57-9.81,7.95-13.78,12.84-.91,2.04-1.13,4.3-.02,6.28,2.23,3.97,8.72,2.25,13.05-1.62Z"/>
      <path d="M146.49,225.07c6.15-.15,11.93-5.04,16.4-9.36-.91,2.22-2.75,3.93-4.65,5.54-4.54,3.82-11.17,7.27-17.16,6.36-2.74-.42-4.71-2.24-4.79-4.91-.07-2.38.66-4.73,1.86-6.95,3.27-6.02,8.59-10.92,15.03-14.03,3.74-1.81,10.3-3.29,11.83-.74,1.44,2.4-1.77,5.56-4.67,7.4-5.13,3.25-10.85,5.05-17.05,6.14-1.62,3.03-2.84,7.4-.5,9.43.94.81,2.32,1.17,3.71,1.14ZM160.43,204.47c.26-.84.37-1.85-.11-2.43-1.54-1.88-5.22-.41-7.8,1.43-3.61,2.73-6.5,6.03-8.77,10.15,6.38-1.04,13.95-3.66,16.69-9.15Z"/>
      <path d="M24.89,220.37c-4.26,8.37-20.28,9.93-24.03,4.09-2.44-3.8,1.96-8.88,7.03-9.92-1.91,1.33-3.47,2.79-3.78,5.03-.33,2.42.97,4.49,3.19,5.81,3.8,1.97,8.73,1.51,11.92-1.21,2.89-2.48,3.07-5.97.72-8.77l-4.62-5.48c-2.11-2.5-1.84-5.76.69-7.99,6.12-5.4,16.06-3.83,16.66-1.27.14.61-.27,1.87-.78,2.29l-3.47,2.92c.81-1.91,1.01-3.96-.94-5.17-2.37-1.48-5.55-1.37-7.91.1-2.21,1.37-2.55,4.06-.86,5.99l5.08,5.81c1.97,2.26,2.45,5.11,1.1,7.75Z"/>
      <path d="M56.46,227.17l11.53-17.32,3.25-5.72c.14-.24.06-1.08-.16-1.27-.26-.23-.87-.25-1.49-.28-2.55,1.12-4.54,2.66-7.05,4.3,2.38-3.16,10.33-8.45,13.2-6.58,2.47,1.61-3.58,9.22-5.33,12.68,4.1-4.33,8.29-8.3,13.49-11.34,2.49-1.46,6.21-2.97,7.53-1.53,1.38,1.51-2.06,4.74-4.79,6.22.23-1.04.52-1.99-.15-2.86-1.15-1.49-5.76,1.48-8.08,3.39-4.07,3.34-7.6,7-10.87,11.06l-6.35,8.96-4.74.29Z"/>
      <path d="M35.51,220.2c-.3,2.85,1.9,4.86,4.79,4.75,6.06-.24,10.61-4.97,14.95-8.91-3.25,6.27-12.8,12.66-20.11,11.55-2.67-.4-4.48-2.26-4.69-4.76-.2-2.53.48-5,1.75-7.36,3.73-6.97,10.16-12.54,18-15.25,3.66-1.27,9.31-1.6,10.4.61.93,1.89-2.48,4.73-5.21,6.07.54-1.22,1.07-2.4.89-3.59-.24-1.58-1.88-2.35-3.49-2.37-2.29-.02-4.27.85-6.07,2.12-5.34,3.76-10.56,10.84-11.22,17.15Z"/>
      <path d="M98.69,219.3c-2.37,3.81-11.79,10.5-14.25,7.68-.48-.55-.73-1.82-.28-2.56l3.71-6.13,9.5-13.97c.36-.53.66-1.44.47-2.06l-3.46-.21c3.29-1.3,6.22-1.88,9.97-1.98l-2.5,4.2-11.95,17.73c-.37.54-.66,1.61-.45,2.14.24.59,1.55.54,2.05.19l7.18-5.03Z"/>
    </g>
    <path d="M109.91,192.07c-1.46,2.78-4.72,3.44-5.63,2.47-1.09-1.16.66-4.37,3.8-4.81.46-.06,1.34.33,1.62.65s.41,1.32.22,1.69Z"/>
  </g>
</svg>