<?xml version="1.0" encoding="UTF-8"?>
<svg id="katman_1" data-name="katman 1" xmlns="http://www.w3.org/2000/svg" viewBox="0 0 702.33 194.39">
  <defs>
    <style>
      .cls-1 {
        fill: #fff;
      }
    </style>
  </defs>
  <polygon points="180.89 67.06 181.57 193.41 .59 193.41 .46 153.96 118.01 33.56 49.29 33.09 49.19 50.07 69.4 50.96 .17 121.22 0 0 181.38 .05 181.44 32.41 98.91 116.98 58.24 159.28 130.76 159.62 130.95 141.86 107.48 141.5 180.89 67.06"/>
  <path d="M611.14,99.01l-13.92.97-19.09-28.67c-1.72.58-7.42,5.34-7.51,7.96l-.74,19.56-11.71.95V34.79s11.55-.14,11.55-.14l.77,27.52,24.66-27.33,14.94.31-24.58,26.35,25.64,37.51Z"/>
  <polygon points="434.15 70.94 405.14 70.9 405.13 88.95 438.01 88.95 438.61 99.35 393.14 99.59 393.15 34.76 437.18 34.62 437.35 44.97 405.26 45.02 404.97 60.78 433.65 60.62 434.15 70.94"/>
  <path d="M685.16,84.84l-24.32.2-5.79,14.53-12.16-.08,23.4-64.66,12.99-.08,23.04,64.2-12,1.05-5.17-15.18ZM681.62,74.45l-8.95-26.08-9,25.99,17.95.09Z"/>
  <path d="M355.2,99.59l-46.51-.07c-3.63-4.35-.88-10.89,2.32-15.14l29.48-39.11-32.94-.45.5-10.13,46.54-.09c1.07,5.31-.26,11.07-3.61,15.62l-28.38,38.5,32.69.27-.09,10.59Z"/>
  <polygon points="520.64 89.03 519.98 99.47 477.43 99.5 477.43 34.93 489.64 34.57 489.72 88.96 520.64 89.03"/>
  <rect x="249.93" y=".1" width="3.6" height="194.29"/>
  <polygon class="cls-1" points="681.62 74.45 663.67 74.36 672.67 48.37 681.62 74.45"/>
  <g>
    <path d="M504.6,171.37c-5.09,7.75-12.13,13.93-20.43,18.37-5.52,2.95-13.59,5.05-18.85,2.43-2.57-1.28-3.56-3.45-3.37-6.22l-4.68,6.07-5.03.28,20.8-31.68,10.42-14.69c7.64-9.35,19.94-18.48,33.08-16.74l-2.34,2.03c-10.01-1.96-21.1,8.65-26.1,16.31l-13.93,21.29c5.51-4.95,10.73-9.57,17.21-13.15,5.14-2.95,12.74-5.73,16.46-2.24,3.99,3.75.29,12.56-3.25,17.94ZM486.94,185.61c6.78-6.06,11.73-13.72,14.56-22.1.67-1.97.81-4.38-.25-6.06-2.19-3.45-8.93-.61-13.19,2.23-7.92,5.29-14.53,11.77-20.41,19.02-1.35,3.02-1.68,6.37-.03,9.29,3.3,5.87,12.91,3.33,19.32-2.39Z"/>
    <path d="M523.64,189.13c9.11-.22,17.67-7.46,24.29-13.87-1.34,3.29-4.07,5.82-6.89,8.2-6.72,5.66-16.54,10.76-25.41,9.42-4.06-.62-6.98-3.32-7.1-7.28-.11-3.53.97-7,2.76-10.29,4.84-8.92,12.72-16.18,22.26-20.78,5.55-2.68,15.26-4.87,17.52-1.1,2.13,3.55-2.63,8.23-6.92,10.95-7.6,4.81-16.06,7.48-25.25,9.1-2.4,4.49-4.21,10.96-.74,13.96,1.39,1.2,3.44,1.74,5.49,1.69ZM544.29,158.63c.39-1.25.54-2.74-.16-3.6-2.28-2.79-7.73-.61-11.56,2.12-5.35,4.04-9.62,8.92-12.99,15.04,9.45-1.54,20.66-5.41,24.71-13.55Z"/>
    <path d="M343.58,182.18c-6.31,12.39-30.03,14.71-35.59,6.06-3.61-5.62,2.91-13.16,10.41-14.68-2.83,1.97-5.14,4.14-5.59,7.45-.49,3.58,1.44,6.65,4.73,8.6,5.63,2.92,12.93,2.24,17.65-1.79,4.28-3.67,4.55-8.85,1.06-12.98l-6.84-8.12c-3.12-3.7-2.73-8.52,1.02-11.84,9.07-8,23.78-5.67,24.67-1.88.21.91-.4,2.76-1.16,3.4l-5.13,4.32c1.2-2.83,1.49-5.86-1.4-7.66-3.51-2.19-8.22-2.02-11.72.15-3.27,2.03-3.77,6.01-1.27,8.87l7.52,8.61c2.92,3.35,3.63,7.57,1.63,11.48Z"/>
    <path d="M390.33,192.25l17.08-25.65,4.82-8.47c.2-.36.08-1.6-.23-1.88-.38-.33-1.29-.37-2.21-.41-3.77,1.65-6.73,3.95-10.44,6.36,3.52-4.68,15.3-12.51,19.55-9.74,3.66,2.38-5.3,13.65-7.89,18.77,6.08-6.41,12.28-12.28,19.98-16.79,3.69-2.16,9.2-4.39,11.15-2.27,2.05,2.23-3.05,7.02-7.09,9.21.35-1.53.77-2.95-.23-4.24-1.71-2.21-8.54,2.2-11.97,5.02-6.03,4.95-11.25,10.37-16.1,16.38l-9.41,13.27-7.02.43Z"/>
    <path d="M359.3,181.93c-.44,4.22,2.81,7.19,7.1,7.03,8.98-.35,15.72-7.36,22.14-13.19-4.82,9.29-18.96,18.75-29.78,17.11-3.95-.6-6.64-3.34-6.94-7.05s.72-7.4,2.59-10.9c5.53-10.32,15.05-18.57,26.66-22.59,5.42-1.88,13.79-2.37,15.4.9,1.38,2.8-3.68,7.01-7.71,8.98.79-1.81,1.58-3.56,1.32-5.31-.35-2.34-2.78-3.49-5.17-3.51-3.39-.03-6.33,1.26-8.99,3.14-7.91,5.56-15.64,16.05-16.61,25.4Z"/>
    <path d="M452.86,180.59c-3.51,5.64-17.46,15.55-21.1,11.37-.71-.82-1.08-2.7-.41-3.79l5.5-9.08,14.06-20.68c.54-.79.98-2.13.69-3.05l-5.12-.31c4.87-1.92,9.21-2.78,14.76-2.93l-3.7,6.22-17.69,26.25c-.54.81-.98,2.38-.66,3.16.35.87,2.29.8,3.04.27l10.64-7.44Z"/>
    <path d="M469.47,140.26c-2.15,4.11-6.99,5.09-8.34,3.65-1.62-1.72.98-6.47,5.63-7.12.68-.1,1.99.48,2.4.96s.61,1.95.32,2.51Z"/>
  </g>
</svg>